<svg id="Layer_1" data-name="Layer 1" xmlns="http://www.w3.org/2000/svg" viewBox="0 0 394 94.23"><defs><style>.cls-1{fill:#19468d;}.cls-2{fill:#fdda00;}</style></defs><title>Horisontaalne_mini_logo</title><path class="cls-1" d="M93.2,46c-3.87,3.43-7.73,6.91-11.59,10.34-.76.65-1.47,1.3-2.23,2-2,2-4.08,4.73-6,7-.43.55-.87,1-1.24,1.58a4.29,4.29,0,0,0-1.16,3.54c.28,1.14,1.31,1.36,2.35.48,0-.1.16-.16.21-.21s.28-.33.39-.49c1.57-2,3.21-3.86,4.83-5.82a36.13,36.13,0,0,1,3.87-3.86q5.79-5.14,11.59-10.28a4.3,4.3,0,0,0,1.35-3.75,1.15,1.15,0,0,0-1.11-1A1.94,1.94,0,0,0,93.2,46"/><path class="cls-2" d="M62.74,49.7,57.4,54.92a4.73,4.73,0,0,1-5.87.38l-5.71-4.13a3.13,3.13,0,0,1-.38-5l5.33-5.16a4.74,4.74,0,0,1,5.87-.44l5.72,4.13A3.13,3.13,0,0,1,62.74,49.7Z"/><path class="cls-1" d="M37.17,23.1c-1,.55-1,1.58.11,2.4a1.06,1.06,0,0,1,.27.16c.17.11.38.17.55.27C40.43,27,42.67,28.16,45,29.3a44.62,44.62,0,0,1,4.68,2.94c4.29,3,8.59,6,12.83,9a4.36,4.36,0,0,0,4,.43c1.09-.48,1-1.57-.1-2.33-4.24-3-8.54-6-12.84-9-.82-.54-1.63-1.14-2.45-1.74-2.44-1.53-5.55-2.94-8.27-4.3-.64-.27-1.25-.6-1.9-.87a4.63,4.63,0,0,0-2.28-.61,3.4,3.4,0,0,0-1.42.28"/><path class="cls-1" d="M43.32,18.92c-1,.54-1,1.58.11,2.39.1.05.16.11.27.16a1.46,1.46,0,0,0,.54.22c2.28,1.15,4.57,2.29,6.8,3.43a37.9,37.9,0,0,1,4.73,2.94c4.3,3,8.6,6,12.84,9a4.39,4.39,0,0,0,4,.44c1.09-.49,1-1.58-.11-2.34-4.3-3-8.54-6-12.84-9-.81-.54-1.68-1.14-2.5-1.74-2.39-1.53-5.55-2.94-8.21-4.3-.65-.27-1.25-.6-1.91-.87a4.65,4.65,0,0,0-2.3-.61,3.06,3.06,0,0,0-1.39.29"/><path class="cls-1" d="M50.34,14.51c-1,.5-1,1.58.1,2.34a1.39,1.39,0,0,1,.28.16,2.53,2.53,0,0,0,.54.28c2.34,1.08,4.57,2.28,6.8,3.42a34.74,34.74,0,0,1,4.73,2.88q6.45,4.5,12.84,9a4.26,4.26,0,0,0,4,.49c1.08-.55,1-1.58-.11-2.4-4.3-2.93-8.55-5.92-12.84-9-.81-.54-1.68-1.15-2.5-1.74-2.45-1.47-5.55-2.88-8.21-4.3-.66-.27-1.25-.54-1.91-.87a4.55,4.55,0,0,0-2.24-.6,3,3,0,0,0-1.45.33"/><path class="cls-1" d="M46.85,35.73c-4.51,3.58-9,7.17-13.54,10.71-.87.71-1.74,1.41-2.61,2.06-2.34,2.13-4.84,5-7.07,7.4-.54.6-1,1.14-1.52,1.74a4.73,4.73,0,0,0-1.42,3.87c.28,1.36,1.42,1.63,2.61.7a2.64,2.64,0,0,0,.27-.22,3.2,3.2,0,0,1,.44-.48c1.85-2.13,3.81-4.14,5.71-6.2a42.74,42.74,0,0,1,4.52-4L47.78,40.51a4.56,4.56,0,0,0,1.68-4.08,1.35,1.35,0,0,0-1.31-1.23,2.11,2.11,0,0,0-1.3.53"/><path class="cls-1" d="M40.17,31.26,26.84,41.82c-.87.65-1.74,1.35-2.56,2-2.34,2.07-4.79,4.9-7,7.28-.48.6-1,1.15-1.47,1.69a4.7,4.7,0,0,0-1.41,3.86c.28,1.31,1.41,1.58,2.61.66.06-.06.17-.11.22-.22a1.84,1.84,0,0,0,.44-.44c1.84-2.12,3.75-4.07,5.6-6.09a37.64,37.64,0,0,1,4.51-4C32.17,43,36.63,39.53,41,36a4.65,4.65,0,0,0,1.69-4,1.34,1.34,0,0,0-1.28-1.23,2.1,2.1,0,0,0-1.27.52"/><path class="cls-1" d="M33.2,27.3c-4,3.15-8,6.3-12,9.51L18.9,38.66c-2.07,1.85-4.24,4.35-6.26,6.53-.48.55-.92,1-1.36,1.52A4.57,4.57,0,0,0,10,50.19c.22,1.15,1.31,1.42,2.34.6.05-.06.17-.11.22-.22a3.55,3.55,0,0,0,.38-.44c1.69-1.84,3.37-3.63,5.06-5.43a29.53,29.53,0,0,1,4-3.64c4-3.16,8-6.32,12-9.52a4.08,4.08,0,0,0,1.47-3.65,1.17,1.17,0,0,0-1.13-1.07,1.87,1.87,0,0,0-1.16.48"/><path class="cls-1" d="M26.9,63.74c-1.21.48-1.21,1.63-.06,2.55l.27.17v.05c.16.11.38.16.54.27,2.45,1.31,4.79,2.72,7.19,4.08a39.71,39.71,0,0,1,4.83,3.43c4.41,3.48,8.87,7,13.28,10.38a4.66,4.66,0,0,0,4.24.77c1.19-.55,1.19-1.69.05-2.62-4.4-3.42-8.81-6.9-13.22-10.38-.87-.71-1.68-1.36-2.55-2-2.56-1.8-5.82-3.49-8.6-5.12-.65-.38-1.36-.7-2-1.09a4.86,4.86,0,0,0-2.59-.75,3.28,3.28,0,0,0-1.37.27"/><path class="cls-1" d="M31.84,57.86c-1.25.54-1.25,1.74-.05,2.67a.86.86,0,0,0,.27.21,5.39,5.39,0,0,0,.6.33c2.5,1.41,5,2.83,7.39,4.24a39.25,39.25,0,0,1,5.06,3.59c4.63,3.59,9.2,7.24,13.76,10.88a5.06,5.06,0,0,0,4.41.76c1.25-.54,1.31-1.74.11-2.72-4.63-3.59-9.19-7.23-13.76-10.88-.93-.65-1.8-1.35-2.67-2.06-2.61-1.85-6-3.65-8.92-5.39-.71-.32-1.36-.7-2.06-1.09a5.43,5.43,0,0,0-2.78-.79,3.47,3.47,0,0,0-1.36.25"/><path class="cls-1" d="M37.45,52.31c-1.26.54-1.31,1.8-.06,2.78.11,0,.16.16.27.22h.06a4.28,4.28,0,0,0,.54.32C40.87,57,43.37,58.52,45.93,60a37.74,37.74,0,0,1,5.22,3.7c4.73,3.7,9.41,7.45,14.14,11.15a5,5,0,0,0,4.57.82c1.25-.55,1.31-1.8.06-2.78-4.74-3.75-9.47-7.45-14.15-11.2-.92-.71-1.85-1.42-2.71-2.18-2.72-1.9-6.21-3.7-9.26-5.49-.7-.33-1.41-.71-2.06-1.09a5.54,5.54,0,0,0-2.91-.84,3.77,3.77,0,0,0-1.38.24"/><path class="cls-1" d="M87.54,40.94c-3.86,3.43-7.78,6.86-11.64,10.28-.76.71-1.47,1.37-2.23,2-2,2-4.14,4.68-6.09,7-.39.54-.82,1.09-1.25,1.63a4.23,4.23,0,0,0-1.09,3.54c.27,1.14,1.3,1.36,2.34.43l.21-.21a4.2,4.2,0,0,0,.33-.44c1.63-2,3.26-3.86,4.9-5.82a31.26,31.26,0,0,1,3.86-3.86L88.51,45.13a4.15,4.15,0,0,0,1.37-3.69,1.19,1.19,0,0,0-1.13-1.07,1.84,1.84,0,0,0-1.21.57"/><path class="cls-1" d="M81.66,35.89C77.8,39.31,73.89,42.74,70,46.17c-.77.65-1.48,1.36-2.24,2a82.33,82.33,0,0,0-6,7l-1.31,1.63a4.33,4.33,0,0,0-1.14,3.48c.27,1.2,1.36,1.36,2.34.49.11-.05.16-.16.22-.21a2,2,0,0,0,.38-.49c1.63-2,3.21-3.87,4.84-5.77A45.22,45.22,0,0,1,71,50.35c3.92-3.42,7.78-6.85,11.64-10.28A4.16,4.16,0,0,0,84,36.32a1.16,1.16,0,0,0-1.11-1,1.88,1.88,0,0,0-1.23.58"/><path class="cls-1" d="M124.51,67.9V38.32H113V34.76h27v3.56H128.44V67.9Z"/><path class="cls-1" d="M135.43,67.9l15.29-34h.47l15.25,34h-4.22l-3.65-8.43H143.1l-3.63,8.43Zm9.11-11.61h12.65l-6.27-14.61Z"/><path class="cls-1" d="M170.32,67.9V34.76h6.92q6.85,0,10.42,2.47a8.16,8.16,0,0,1,3.57,7.17,8.81,8.81,0,0,1-2.33,6.15,10.51,10.51,0,0,1-6.22,3.23L194.56,67.9h-4.89L178.26,54.28h-4.11V67.9Zm3.83-16.66h3.32q4.83,0,7.35-1.73a5.7,5.7,0,0,0,2.53-5,5.4,5.4,0,0,0-2.51-5q-2.51-1.57-8-1.57h-2.67Z"/><path class="cls-1" d="M206.07,67.9V38.32H194.52V34.76h27v3.56H210V67.9Z"/><path class="cls-1" d="M229.68,34.76V54.14c0,3.69.77,6.47,2.32,8.36s3.84,2.82,6.88,2.82,5.26-1,6.79-2.87S248,57.72,248,54V34.76h3.52V54.64c0,4.49-1.13,8-3.37,10.53A11.71,11.71,0,0,1,238.88,69q-6.24,0-9.66-3.71T225.8,54.76v-20Z"/><path class="cls-1" d="M272.46,67.9V34.76h7.72V49.18L291,34.76h9.29L287.93,50.53,301.24,67.9h-9.43L280.18,52.63V67.9Z"/><path class="cls-1" d="M303.92,67.9V34.76h7.72V46.92h12.61V34.76h7.66V67.9h-7.66V54H311.64V67.9Z"/><path class="cls-1" d="M339.45,67.9V34.76h7.71V49.18L358,34.76h9.29L354.92,50.53l13.3,17.37H358.8L347.16,52.63V67.9Z"/></svg>