<svg id="Layer_1" data-name="Layer 1" xmlns="http://www.w3.org/2000/svg" viewBox="0 0 328.67 84.05"><defs><style>.cls-1{fill:#fdda00;}.cls-2{fill:#19468d;}</style></defs><title>Horisontaalne_logo</title><path class="cls-1" d="M61.16,42.3l-5.33,5.22A4.74,4.74,0,0,1,50,47.9l-5.71-4.13a3.12,3.12,0,0,1-.38-5l5.33-5.17a4.74,4.74,0,0,1,5.87-.44l5.71,4.14A3.12,3.12,0,0,1,61.16,42.3Z"/><path class="cls-2" d="M35.6,15.7c-1,.55-1,1.58.11,2.4a1.28,1.28,0,0,1,.27.16c.16.11.38.16.55.27,2.33,1.08,4.56,2.23,6.84,3.37a41.17,41.17,0,0,1,4.68,2.94c4.3,3,8.6,6,12.84,9a4.35,4.35,0,0,0,4,.43c1.09-.49,1-1.57-.11-2.34-4.24-3-8.54-6-12.84-9-.81-.55-1.63-1.14-2.44-1.75C47,19.67,43.92,18.26,41.2,16.9c-.65-.27-1.25-.6-1.9-.87A4.54,4.54,0,0,0,37,15.42a3.38,3.38,0,0,0-1.41.28"/><path class="cls-2" d="M41.74,11.52c-1,.54-1,1.57.11,2.39.11.05.17.11.28.16a1.65,1.65,0,0,0,.54.22c2.28,1.14,4.57,2.28,6.8,3.42a39.42,39.42,0,0,1,4.73,2.94c4.3,3,8.59,6,12.84,9a4.33,4.33,0,0,0,4,.43c1.09-.49,1-1.57-.1-2.33-4.3-3.05-8.54-6-12.84-9-.82-.54-1.68-1.14-2.5-1.74-2.39-1.53-5.55-2.94-8.21-4.3-.66-.27-1.25-.6-1.91-.87a4.55,4.55,0,0,0-2.3-.61,3.1,3.1,0,0,0-1.4.29"/><path class="cls-2" d="M48.76,7.11c-1,.49-1,1.57.11,2.34a1.06,1.06,0,0,1,.27.16,2.47,2.47,0,0,0,.54.27c2.34,1.09,4.57,2.28,6.8,3.43a33.32,33.32,0,0,1,4.74,2.88c4.29,3,8.59,6,12.83,9a4.21,4.21,0,0,0,4,.49c1.09-.54,1-1.57-.11-2.39-4.29-2.93-8.54-5.93-12.83-9-.82-.55-1.69-1.15-2.5-1.74-2.45-1.47-5.55-2.88-8.22-4.3-.65-.27-1.25-.54-1.9-.87a4.55,4.55,0,0,0-2.24-.6,2.94,2.94,0,0,0-1.46.33"/><path class="cls-2" d="M45.28,28.32c-4.52,3.59-9,7.18-13.54,10.71-.87.71-1.74,1.42-2.61,2.07-2.34,2.12-4.84,4.95-7.07,7.4-.55.6-1,1.14-1.53,1.74a4.73,4.73,0,0,0-1.41,3.86c.27,1.36,1.41,1.63,2.61.71.05-.05.16-.11.27-.22a3.24,3.24,0,0,1,.44-.49c1.85-2.12,3.8-4.13,5.71-6.2a43.8,43.8,0,0,1,4.51-4L46.21,33.11A4.62,4.62,0,0,0,47.89,29a1.36,1.36,0,0,0-1.32-1.24,2.08,2.08,0,0,0-1.29.53"/><path class="cls-2" d="M38.59,23.86,25.27,34.41c-.87.66-1.75,1.36-2.56,2-2.34,2.07-4.79,4.9-7,7.29-.49.6-1,1.15-1.47,1.69a4.68,4.68,0,0,0-1.41,3.86c.27,1.3,1.41,1.57,2.61.65.05,0,.17-.11.22-.22a1.6,1.6,0,0,0,.43-.43c1.85-2.12,3.76-4.08,5.6-6.09a38.6,38.6,0,0,1,4.52-4c4.4-3.53,8.86-7,13.27-10.55a4.65,4.65,0,0,0,1.69-4c-.17-.81-.66-1.24-1.29-1.24a2.06,2.06,0,0,0-1.27.53"/><path class="cls-2" d="M31.63,19.89c-4,3.15-8,6.31-12,9.52-.76.6-1.52,1.19-2.34,1.85-2.06,1.85-4.24,4.35-6.25,6.52L9.71,39.31a4.55,4.55,0,0,0-1.25,3.48c.22,1.14,1.3,1.41,2.34.6,0-.06.16-.11.21-.22a3.47,3.47,0,0,0,.39-.44c1.68-1.85,3.37-3.64,5.06-5.43a30.29,30.29,0,0,1,4-3.65c4-3.16,8-6.31,12-9.52a4,4,0,0,0,1.47-3.64,1.15,1.15,0,0,0-1.12-1.07,1.89,1.89,0,0,0-1.16.47"/><path class="cls-2" d="M25.32,56.33c-1.2.49-1.2,1.63-.05,2.56l.27.16v.06c.16.1.38.16.54.27,2.45,1.3,4.79,2.72,7.18,4.07a42.16,42.16,0,0,1,4.84,3.43c4.41,3.48,8.86,7,13.27,10.39a4.65,4.65,0,0,0,4.24.76c1.2-.54,1.2-1.68.06-2.61C51.26,72,46.86,68.51,42.45,65c-.87-.7-1.69-1.36-2.55-2-2.56-1.79-5.82-3.48-8.6-5.11-.65-.39-1.36-.71-2-1.09a4.8,4.8,0,0,0-2.59-.75,3.33,3.33,0,0,0-1.38.26"/><path class="cls-2" d="M30.27,50.46C29,51,29,52.2,30.21,53.12a.9.9,0,0,0,.28.22,5.39,5.39,0,0,0,.6.33c2.5,1.41,4.94,2.82,7.39,4.24a40.69,40.69,0,0,1,5.06,3.59c4.62,3.59,9.19,7.23,13.76,10.87a5,5,0,0,0,4.4.77c1.26-.55,1.31-1.75.11-2.72-4.62-3.59-9.19-7.24-13.76-10.88-.92-.65-1.79-1.36-2.66-2.07-2.61-1.85-6-3.64-8.92-5.38-.71-.33-1.36-.71-2.07-1.09a5.4,5.4,0,0,0-2.78-.79,3.42,3.42,0,0,0-1.35.25"/><path class="cls-2" d="M35.87,44.91c-1.25.54-1.31,1.79,0,2.77.1.06.16.16.27.22h0a4.43,4.43,0,0,0,.55.33c2.61,1.41,5.11,2.88,7.67,4.35a37.25,37.25,0,0,1,5.22,3.7C54.31,60,59,63.73,63.72,67.43a5.07,5.07,0,0,0,4.57.81c1.25-.54,1.3-1.8,0-2.77C63.61,61.71,58.88,58,54.2,54.26c-.92-.7-1.85-1.41-2.72-2.17-2.72-1.91-6.2-3.7-9.25-5.49-.7-.33-1.41-.71-2.07-1.09a5.47,5.47,0,0,0-2.9-.84,3.59,3.59,0,0,0-1.39.24"/><path class="cls-2" d="M91.62,38.6C87.76,42,83.9,45.51,80,48.93c-.76.66-1.46,1.31-2.23,2-2,2-4.08,4.73-6,7-.44.54-.87,1-1.25,1.58A4.25,4.25,0,0,0,69.37,63c.28,1.14,1.31,1.36,2.34.49.06-.11.17-.16.22-.22s.27-.32.38-.49c1.58-2,3.21-3.86,4.84-5.82A37,37,0,0,1,81,53.12L92.6,42.84A4.33,4.33,0,0,0,94,39.09a1.17,1.17,0,0,0-1.12-1,2,2,0,0,0-1.22.54"/><path class="cls-2" d="M86,33.54C82.1,37,78.18,40.39,74.32,43.82c-.76.71-1.47,1.36-2.23,2-2,2-4.13,4.68-6.09,7-.38.54-.81,1.08-1.25,1.63A4.2,4.2,0,0,0,63.66,58c.28,1.15,1.31,1.36,2.34.44.06,0,.11-.11.22-.22a2.27,2.27,0,0,0,.32-.44c1.64-2,3.27-3.86,4.9-5.82a34.3,34.3,0,0,1,3.86-3.86L86.94,37.73A4.16,4.16,0,0,0,88.3,34,1.17,1.17,0,0,0,87.18,33a1.87,1.87,0,0,0-1.22.57"/><path class="cls-2" d="M80.09,28.49c-3.86,3.42-7.78,6.85-11.64,10.27-.76.66-1.47,1.36-2.23,2a84.18,84.18,0,0,0-6,7c-.44.54-.87,1.08-1.3,1.63a4.35,4.35,0,0,0-1.15,3.48c.28,1.2,1.36,1.36,2.34.49a.66.66,0,0,0,.22-.22,1.69,1.69,0,0,0,.38-.49c1.63-2,3.21-3.86,4.84-5.76A43.92,43.92,0,0,1,69.43,43c3.91-3.42,7.77-6.85,11.63-10.28a4.21,4.21,0,0,0,1.37-3.75,1.16,1.16,0,0,0-1.11-1,1.79,1.79,0,0,0-1.23.58"/><path class="cls-2" d="M188.3,28.53V40.34h-2.43V28.53h-4.64V26.41h11.69v2.12Z"/><path class="cls-2" d="M193.66,40.34h-2.45L198,26h.19l6.52,14.38h-2.54L201,37.86h-6.25Zm2-4.47h4.51L198,30.67Z"/><path class="cls-2" d="M206,40.34V26.41h3.19a11.89,11.89,0,0,1,2.63.22,4.82,4.82,0,0,1,1.66.74,3.94,3.94,0,0,1,1.19,1.32,3.44,3.44,0,0,1,.42,1.66,3.8,3.8,0,0,1-.77,2.37,4.7,4.7,0,0,1-2.24,1.5l4.44,6.12h-2.81l-4.17-5.79h-1.17v5.79Zm2.37-7.57h1.11a4.09,4.09,0,0,0,2.39-.58,1.9,1.9,0,0,0,.82-1.65,1.79,1.79,0,0,0-.83-1.63,5.08,5.08,0,0,0-2.6-.51h-.89Z"/><path class="cls-2" d="M223.77,28.53V40.34h-2.43V28.53H216.7V26.41h11.68v2.12Z"/><path class="cls-2" d="M232.46,26.41v8.12a4.71,4.71,0,0,0,.84,3,3.05,3.05,0,0,0,2.5,1,3,3,0,0,0,2.46-1,4.85,4.85,0,0,0,.83-3.08V26.41h2.17v8.1a6.72,6.72,0,0,1-1.48,4.61,5.13,5.13,0,0,1-4,1.67,5.45,5.45,0,0,1-4.23-1.62,6.55,6.55,0,0,1-1.5-4.62V26.41Z"/><path class="cls-2" d="M105.42,64V50h2.39v6.21L113.66,50h2.79l-6.27,6.68L117.11,64H114l-6.19-6.52V64Z"/><path class="cls-2" d="M120.32,50v8.12a4.65,4.65,0,0,0,.85,3,3,3,0,0,0,2.49,1,2.94,2.94,0,0,0,2.46-1,4.85,4.85,0,0,0,.84-3.08V50h2.16v8.1a6.69,6.69,0,0,1-1.48,4.61,5.13,5.13,0,0,1-4,1.67,5.48,5.48,0,0,1-4.23-1.62,6.6,6.6,0,0,1-1.49-4.62V50Z"/><path class="cls-2" d="M137.77,52.14V64h-2.42V52.14H130.7V50h11.69v2.12Z"/><path class="cls-2" d="M143.39,60.85a10.53,10.53,0,0,0,2.05,1.08,5.07,5.07,0,0,0,1.76.34,2.74,2.74,0,0,0,1.76-.54,1.72,1.72,0,0,0,.67-1.41,2,2,0,0,0-.45-1.29,5.87,5.87,0,0,0-1.57-1.24l-1-.64a7.3,7.3,0,0,1-2.23-1.84,3.46,3.46,0,0,1-.66-2.08,3.38,3.38,0,0,1,1.15-2.66,4.4,4.4,0,0,1,3-1,7.28,7.28,0,0,1,1.75.2,8.34,8.34,0,0,1,1.71.64l-.08,2.22a11.36,11.36,0,0,0-1.8-.83,4.4,4.4,0,0,0-1.4-.27,2.43,2.43,0,0,0-1.5.43,1.42,1.42,0,0,0-.54,1.17,1.59,1.59,0,0,0,.4,1,6.17,6.17,0,0,0,1.48,1.11l1,.59a8.07,8.07,0,0,1,2.46,2.06,4,4,0,0,1,.73,2.35,3.82,3.82,0,0,1-1.3,3,5,5,0,0,1-3.44,1.15,8.69,8.69,0,0,1-1.92-.21,7.9,7.9,0,0,1-1.79-.62Z"/><path class="cls-2" d="M154.69,64V50h8v2.14H157v3.43h4.85v2.12H157v4.07h5.75V64Z"/><path class="cls-2" d="M165.56,64V50H168v5.55h6.56V50h2.37V64h-2.37V57.71H168V64Z"/><path class="cls-2" d="M180.66,64h-2.44L185,49.56h.19L191.68,64h-2.54L188,61.47h-6.25Zm2-4.47h4.5L185,54.28Z"/><path class="cls-2" d="M193.05,64V50h3.18a12,12,0,0,1,2.64.22,4.9,4.9,0,0,1,1.66.74,3.91,3.91,0,0,1,1.18,1.32,3.34,3.34,0,0,1,.43,1.66,3.75,3.75,0,0,1-.78,2.37,4.74,4.74,0,0,1-2.23,1.5L203.57,64h-2.81l-4.18-5.79h-1.16V64Zm2.37-7.57h1.11a4.06,4.06,0,0,0,2.38-.58,1.88,1.88,0,0,0,.82-1.65,1.79,1.79,0,0,0-.82-1.63,5.09,5.09,0,0,0-2.6-.52h-.89Z"/><path class="cls-2" d="M205.39,64V50h2.43V64Z"/><path class="cls-2" d="M211.29,64V50h3.32a9,9,0,0,1,6,1.86,6.31,6.31,0,0,1,2.2,5.1,6.56,6.56,0,0,1-3.4,5.92,7,7,0,0,1-2.06.8,13.47,13.47,0,0,1-2.78.25Zm2.39-2.22h1.24a5.86,5.86,0,0,0,4-1.27,4.94,4.94,0,0,0,0-7,5.9,5.9,0,0,0-4-1.26h-1.24Z"/><path class="cls-2" d="M227.61,50v8.12a4.71,4.71,0,0,0,.84,3,3,3,0,0,0,2.49,1,3,3,0,0,0,2.47-1,4.92,4.92,0,0,0,.83-3.08V50h2.16v8.1a6.69,6.69,0,0,1-1.48,4.61,5.11,5.11,0,0,1-4,1.67,5.49,5.49,0,0,1-4.24-1.62,6.6,6.6,0,0,1-1.49-4.62V50Z"/><path class="cls-2" d="M238.86,60.85a10.26,10.26,0,0,0,2,1.08,5,5,0,0,0,1.76.34,2.71,2.71,0,0,0,1.75-.54,1.72,1.72,0,0,0,.67-1.41,2,2,0,0,0-.45-1.29,6,6,0,0,0-1.56-1.24l-1-.64a7.43,7.43,0,0,1-2.23-1.84,3.46,3.46,0,0,1-.66-2.08,3.39,3.39,0,0,1,1.16-2.66,4.37,4.37,0,0,1,3-1,7.28,7.28,0,0,1,1.75.2,7.93,7.93,0,0,1,1.71.64l-.07,2.22a11.84,11.84,0,0,0-1.81-.83,4.35,4.35,0,0,0-1.4-.27,2.38,2.38,0,0,0-1.49.43,1.43,1.43,0,0,0-.55,1.17,1.64,1.64,0,0,0,.4,1,6.39,6.39,0,0,0,1.48,1.11l1,.59a8,8,0,0,1,2.45,2.06,3.91,3.91,0,0,1,.73,2.35,3.81,3.81,0,0,1-1.29,3,5,5,0,0,1-3.45,1.15,8.69,8.69,0,0,1-1.92-.21,7.82,7.82,0,0,1-1.78-.62Z"/><path class="cls-2" d="M250.16,64V50h2.38v6.21L258.39,50h2.79l-6.27,6.68L261.84,64h-3.11l-6.19-6.52V64Z"/><path class="cls-2" d="M263.1,64V50h8v2.14h-5.65v3.43h4.86v2.12h-4.86v4.07h5.75V64Z"/><path class="cls-2" d="M273.2,60.85a10.26,10.26,0,0,0,2.05,1.08,5,5,0,0,0,1.76.34,2.71,2.71,0,0,0,1.75-.54,1.72,1.72,0,0,0,.67-1.41A2,2,0,0,0,279,59a6,6,0,0,0-1.56-1.24l-1-.64a7.43,7.43,0,0,1-2.23-1.84,3.46,3.46,0,0,1-.66-2.08,3.39,3.39,0,0,1,1.16-2.66,4.37,4.37,0,0,1,3-1,7.28,7.28,0,0,1,1.75.2,7.93,7.93,0,0,1,1.71.64l-.07,2.22a11.84,11.84,0,0,0-1.81-.83,4.35,4.35,0,0,0-1.4-.27,2.38,2.38,0,0,0-1.49.43,1.43,1.43,0,0,0-.55,1.17,1.64,1.64,0,0,0,.4,1,6.39,6.39,0,0,0,1.48,1.11l1,.59a8,8,0,0,1,2.45,2.06,3.91,3.91,0,0,1,.73,2.35,3.81,3.81,0,0,1-1.29,3,5,5,0,0,1-3.45,1.15,8.69,8.69,0,0,1-1.92-.21,7.82,7.82,0,0,1-1.78-.62Z"/><path class="cls-2" d="M284.5,64V50h2.38v6.21L292.73,50h2.79l-6.27,6.68L296.18,64h-3.11l-6.19-6.52V64Z"/><path class="cls-2" d="M299.4,50v8.12a4.71,4.71,0,0,0,.84,3,3,3,0,0,0,2.49,1,3,3,0,0,0,2.47-1,4.92,4.92,0,0,0,.83-3.08V50h2.16v8.1a6.69,6.69,0,0,1-1.48,4.61,5.12,5.12,0,0,1-4,1.67,5.48,5.48,0,0,1-4.23-1.62A6.6,6.6,0,0,1,297,58.16V50Z"/><path class="cls-2" d="M310.65,60.85a10.21,10.21,0,0,0,2,1.08,5.08,5.08,0,0,0,1.77.34,2.71,2.71,0,0,0,1.75-.54,1.72,1.72,0,0,0,.67-1.41,2,2,0,0,0-.45-1.29,5.87,5.87,0,0,0-1.57-1.24l-1-.64a7.43,7.43,0,0,1-2.23-1.84,3.46,3.46,0,0,1-.66-2.08,3.39,3.39,0,0,1,1.16-2.66,4.37,4.37,0,0,1,3-1,7.28,7.28,0,0,1,1.75.2,8.13,8.13,0,0,1,1.71.64l-.07,2.22a11.84,11.84,0,0,0-1.81-.83,4.35,4.35,0,0,0-1.4-.27,2.38,2.38,0,0,0-1.49.43,1.41,1.41,0,0,0-.55,1.17,1.64,1.64,0,0,0,.4,1,6.39,6.39,0,0,0,1.48,1.11l1,.59a8,8,0,0,1,2.45,2.06,3.91,3.91,0,0,1,.73,2.35,3.81,3.81,0,0,1-1.29,3,5,5,0,0,1-3.45,1.15,8.69,8.69,0,0,1-1.92-.21,8.07,8.07,0,0,1-1.79-.62Z"/></svg>