<svg id="Layer_1" data-name="Layer 1" xmlns="http://www.w3.org/2000/svg" viewBox="0 0 313.5 130.6"><defs><style>.cls-1{fill:#fdda00;}.cls-2{fill:#19468d;}.cls-3{fill:#0099d8;}.cls-4{fill:#065ca9;}</style></defs><title>Teenusüksuse_logo</title><path class="cls-1" d="M82.69,65l-5.41,5.3a4.8,4.8,0,0,1-6,.38l-5.79-4.19a3.16,3.16,0,0,1-.38-5l5.4-5.24a4.83,4.83,0,0,1,6-.45L82.3,60A3.18,3.18,0,0,1,82.69,65Z"/><path class="cls-2" d="M56.76,38.06c-1,.55-1,1.59.11,2.42a1.42,1.42,0,0,1,.27.17c.17.11.39.17.56.27,2.37,1.11,4.63,2.26,6.94,3.42a43.37,43.37,0,0,1,4.75,3c4.36,3,8.72,6.12,13,9.15a4.42,4.42,0,0,0,4,.44c1.1-.49,1-1.6-.11-2.37-4.31-3-8.66-6.12-13-9.16-.83-.55-1.66-1.15-2.48-1.76-2.49-1.55-5.63-3-8.39-4.36-.66-.27-1.27-.61-1.93-.88a4.66,4.66,0,0,0-2.32-.62,3.29,3.29,0,0,0-1.43.29"/><path class="cls-2" d="M63,33.81c-1.05.55-1,1.6.11,2.43.11,0,.17.11.28.16a1.51,1.51,0,0,0,.55.22l6.9,3.47a39.66,39.66,0,0,1,4.79,3c4.36,3,8.72,6.12,13,9.15a4.37,4.37,0,0,0,4,.44c1.1-.49,1-1.59-.11-2.37-4.36-3.09-8.66-6.12-13-9.16C78.71,40.6,77.83,40,77,39.38c-2.42-1.55-5.63-3-8.33-4.36-.66-.28-1.26-.61-1.93-.88a4.7,4.7,0,0,0-2.34-.62,3.15,3.15,0,0,0-1.41.29"/><path class="cls-2" d="M70.11,29.34c-1,.5-1,1.6.11,2.37a1.05,1.05,0,0,1,.27.17,2.53,2.53,0,0,0,.55.27c2.38,1.1,4.64,2.32,6.9,3.48a34.17,34.17,0,0,1,4.8,2.92c4.36,3,8.72,6.07,13,9.11a4.32,4.32,0,0,0,4,.49c1.1-.55,1-1.6-.11-2.43-4.36-3-8.67-6-13-9.1-.82-.55-1.7-1.16-2.53-1.76-2.48-1.49-5.63-2.93-8.33-4.36-.66-.28-1.27-.55-1.93-.89a4.67,4.67,0,0,0-2.28-.6,3,3,0,0,0-1.47.33"/><path class="cls-2" d="M66.58,50.86C62,54.5,57.42,58.14,52.84,61.72c-.88.72-1.76,1.43-2.65,2.1-2.37,2.15-4.91,5-7.17,7.5-.55.61-1.05,1.16-1.55,1.77A4.82,4.82,0,0,0,40,77c.28,1.39,1.43,1.66,2.65.72A2.64,2.64,0,0,0,43,77.5a4.06,4.06,0,0,1,.45-.5c1.87-2.15,3.86-4.19,5.79-6.28a42.85,42.85,0,0,1,4.58-4.09L67.51,55.71a4.64,4.64,0,0,0,1.71-4.14,1.38,1.38,0,0,0-1.34-1.25,2.15,2.15,0,0,0-1.3.54"/><path class="cls-2" d="M59.79,46.33c-4.52,3.59-9,7.12-13.51,10.7-.89.67-1.77,1.38-2.6,2-2.37,2.09-4.85,5-7.12,7.38-.49.62-1,1.17-1.49,1.72a4.73,4.73,0,0,0-1.43,3.91c.28,1.33,1.43,1.6,2.65.67.05-.06.17-.11.22-.22a1.71,1.71,0,0,0,.44-.45c1.88-2.15,3.81-4.14,5.68-6.18a39.59,39.59,0,0,1,4.58-4.08c4.47-3.58,9-7.11,13.47-10.7a4.7,4.7,0,0,0,1.7-4.08,1.35,1.35,0,0,0-1.3-1.25,2.13,2.13,0,0,0-1.29.53"/><path class="cls-2" d="M52.73,42.31c-4,3.19-8.11,6.39-12.14,9.65-.77.61-1.54,1.21-2.37,1.88-2.09,1.87-4.3,4.41-6.34,6.62L30.5,62a4.57,4.57,0,0,0-1.27,3.53c.22,1.16,1.32,1.43,2.37.61.06-.06.17-.11.22-.23a2.89,2.89,0,0,0,.39-.44c1.71-1.87,3.42-3.69,5.13-5.51a31.81,31.81,0,0,1,4.08-3.7c4-3.2,8.11-6.4,12.14-9.65a4.15,4.15,0,0,0,1.49-3.7,1.18,1.18,0,0,0-1.14-1.08,1.92,1.92,0,0,0-1.18.48"/><path class="cls-2" d="M46.34,79.27c-1.22.49-1.22,1.65-.06,2.59.11,0,.16.11.27.16v.06c.17.11.39.17.55.27,2.48,1.33,4.86,2.76,7.28,4.14A39.45,39.45,0,0,1,59.29,90c4.47,3.53,9,7.06,13.47,10.53a4.72,4.72,0,0,0,4.3.77c1.21-.54,1.21-1.7,0-2.64-4.47-3.48-8.94-7-13.4-10.54-.89-.71-1.71-1.38-2.59-2-2.6-1.82-5.91-3.53-8.72-5.19-.67-.38-1.38-.71-2-1.1A5,5,0,0,0,47.73,79a3.38,3.38,0,0,0-1.39.27"/><path class="cls-2" d="M51.35,73.31c-1.27.55-1.27,1.76-.05,2.7a.87.87,0,0,0,.27.22,5.6,5.6,0,0,0,.61.33c2.54,1.43,5,2.87,7.5,4.3a41.12,41.12,0,0,1,5.13,3.65c4.69,3.64,9.32,7.34,14,11a5.09,5.09,0,0,0,4.47.77c1.27-.55,1.32-1.77.1-2.76-4.68-3.63-9.32-7.33-14-11-.94-.66-1.82-1.37-2.7-2.1-2.65-1.87-6.13-3.69-9-5.46-.72-.33-1.38-.71-2.1-1.1a5.43,5.43,0,0,0-2.82-.8,3.52,3.52,0,0,0-1.37.25"/><path class="cls-2" d="M57,67.68c-1.26.55-1.32,1.82-.05,2.82.11,0,.16.16.27.22h.06a4.43,4.43,0,0,0,.55.33C60.51,72.48,63,74,65.64,75.46a38,38,0,0,1,5.3,3.75c4.79,3.75,9.54,7.56,14.34,11.31a5.08,5.08,0,0,0,4.63.82c1.27-.54,1.32-1.81.06-2.8-4.8-3.81-9.6-7.56-14.35-11.37-.93-.72-1.87-1.44-2.75-2.21-2.76-1.93-6.29-3.75-9.38-5.57-.72-.33-1.44-.72-2.1-1.1a5.6,5.6,0,0,0-3-.86,3.73,3.73,0,0,0-1.41.25"/><path class="cls-2" d="M113.58,61.28c-3.91,3.48-7.84,7-11.75,10.48-.77.67-1.49,1.33-2.27,2-2,2-4.13,4.8-6.12,7.11-.44.56-.88,1-1.26,1.61A4.3,4.3,0,0,0,91,86.05c.28,1.16,1.33,1.38,2.38.5a.66.66,0,0,1,.22-.22c.11-.17.27-.33.39-.5,1.59-2,3.25-3.92,4.9-5.9A38.16,38.16,0,0,1,102.82,76l11.75-10.42A4.38,4.38,0,0,0,116,61.78a1.17,1.17,0,0,0-1.13-1,2,2,0,0,0-1.24.54"/><path class="cls-2" d="M107.84,56.15c-3.92,3.48-7.89,7-11.8,10.43-.78.72-1.49,1.37-2.27,2-2,2-4.19,4.74-6.18,7.06-.38.55-.82,1.1-1.26,1.65a4.25,4.25,0,0,0-1.1,3.59c.27,1.16,1.32,1.38,2.36.44l.22-.21a3.31,3.31,0,0,0,.34-.45c1.65-2,3.31-3.92,5-5.9A32.18,32.18,0,0,1,97,70.88l11.8-10.48a4.24,4.24,0,0,0,1.39-3.75,1.21,1.21,0,0,0-1.15-1.08,1.88,1.88,0,0,0-1.23.58"/><path class="cls-2" d="M101.88,51C98,54.5,94,58,90.08,61.45c-.77.66-1.49,1.38-2.27,2a82.83,82.83,0,0,0-6.11,7.06c-.45.55-.89,1.1-1.33,1.66a4.37,4.37,0,0,0-1.16,3.52c.28,1.22,1.38,1.39,2.37.5.12,0,.17-.17.22-.22a1.83,1.83,0,0,0,.39-.49c1.66-2,3.25-3.92,4.91-5.85a46.62,46.62,0,0,1,4-4c4-3.47,7.89-6.94,11.81-10.42a4.29,4.29,0,0,0,1.37-3.81,1.17,1.17,0,0,0-1.12-1,1.92,1.92,0,0,0-1.25.59"/><path class="cls-2" d="M130,56.83v-10h-3.91V45.61h9.15v1.21h-3.91v10Z"/><path class="cls-2" d="M133.66,56.83l5.17-11.5H139l5.16,11.5h-1.43L141.49,54h-5.24L135,56.83Zm3.08-3.93H141L138.9,48Z"/><path class="cls-2" d="M145.46,56.83V45.61h2.35a6.14,6.14,0,0,1,3.52.84,2.77,2.77,0,0,1,1.21,2.43,3,3,0,0,1-.79,2.08,3.51,3.51,0,0,1-2.1,1.09l4,4.78H152l-3.86-4.61h-1.39v4.61Zm1.3-5.64h1.12a4.41,4.41,0,0,0,2.49-.58,1.94,1.94,0,0,0,.86-1.7,1.83,1.83,0,0,0-.85-1.67,5.25,5.25,0,0,0-2.72-.53h-.9Z"/><path class="cls-2" d="M157.56,56.83v-10h-3.91V45.61h9.15v1.21h-3.91v10Z"/><path class="cls-2" d="M165.55,45.61v6.56a4.38,4.38,0,0,0,.79,2.83,2.83,2.83,0,0,0,2.33,1,2.8,2.8,0,0,0,2.3-1,4.49,4.49,0,0,0,.78-2.86V45.61h1.18v6.73a5.21,5.21,0,0,1-1.14,3.57,4,4,0,0,1-3.12,1.29,4.21,4.21,0,0,1-3.27-1.26,5.05,5.05,0,0,1-1.16-3.56V45.61Z"/><path class="cls-2" d="M180,56.83V45.61h2.61V50.5l3.66-4.89h3.14L185.27,51l4.5,5.88h-3.19l-3.94-5.17v5.17Z"/><path class="cls-2" d="M190.68,56.83V45.61h2.61v4.12h4.27V45.61h2.59V56.83h-2.59v-4.7h-4.27v4.7Z"/><path class="cls-2" d="M202.7,56.83V45.61h2.62V50.5L209,45.61h3.15L207.94,51l4.5,5.88h-3.19l-3.93-5.17v5.17Z"/><path class="cls-3" d="M131.94,85.68V70.93h-5.77V69.15h13.49v1.78h-5.77V85.68Z"/><path class="cls-3" d="M142,85.68V69.15h9V70.8h-7.08v5.41H150v1.67h-6.11v6H151v1.77Z"/><path class="cls-3" d="M154.67,85.68V69.15h9V70.8h-7.08v5.41h6.11v1.67h-6.11v6h7.17v1.77Z"/><path class="cls-3" d="M167.36,85.68V68.61h.24l10.93,13V69.15h1.89V86.22h-.26L169.24,73.29V85.68Z"/><path class="cls-3" d="M186.54,69.15v9.67A6.4,6.4,0,0,0,187.7,83a4.17,4.17,0,0,0,3.43,1.41A4.09,4.09,0,0,0,194.52,83a6.63,6.63,0,0,0,1.14-4.21v-9.6h1.76v9.92a7.63,7.63,0,0,1-1.68,5.25,5.83,5.83,0,0,1-4.61,1.9,6.22,6.22,0,0,1-4.82-1.85,7.43,7.43,0,0,1-1.71-5.24v-10Z"/><path class="cls-3" d="M200.63,82.67A14.48,14.48,0,0,0,203.26,84a6.15,6.15,0,0,0,2.1.41,3.7,3.7,0,0,0,2.5-.81,2.67,2.67,0,0,0,.95-2.13,2.76,2.76,0,0,0-.7-1.87A8.14,8.14,0,0,0,205.58,78l-1.13-.51a7.37,7.37,0,0,1-2.73-2,4.18,4.18,0,0,1-.91-2.65,3.91,3.91,0,0,1,1.31-3,5,5,0,0,1,3.41-1.18,7.24,7.24,0,0,1,2,.29,7.74,7.74,0,0,1,1.88.83v2.11a8.49,8.49,0,0,0-2-1.19,5.45,5.45,0,0,0-1.95-.38,3,3,0,0,0-2.08.68,2.23,2.23,0,0,0-.78,1.77,2.48,2.48,0,0,0,.72,1.76A7.37,7.37,0,0,0,205.64,76l1.15.51a7.39,7.39,0,0,1,2.89,2.13,4.67,4.67,0,0,1,1,2.89,4.44,4.44,0,0,1-1.46,3.42,5.37,5.37,0,0,1-3.76,1.32,8.72,8.72,0,0,1-2.27-.31,11.94,11.94,0,0,1-2.39-.94Z"/><path class="cls-3" d="M215.83,69.15v9.67A6.4,6.4,0,0,0,217,83a4.17,4.17,0,0,0,3.43,1.41A4.05,4.05,0,0,0,223.8,83,6.56,6.56,0,0,0,225,78.75v-9.6h1.76v9.92A7.58,7.58,0,0,1,225,84.32a5.81,5.81,0,0,1-4.6,1.9,6.26,6.26,0,0,1-4.83-1.85,7.47,7.47,0,0,1-1.7-5.24v-10Zm1.55-3.62a1.13,1.13,0,0,1,.33-.81,1,1,0,0,1,.77-.34,1.09,1.09,0,0,1,.79.35,1.14,1.14,0,0,1,.34.8,1.1,1.1,0,0,1-.33.81,1.08,1.08,0,0,1-.8.33,1.06,1.06,0,0,1-.79-.33A1.12,1.12,0,0,1,217.38,65.53Zm3.94,0a1.1,1.1,0,0,1,.34-.8,1,1,0,0,1,.78-.35,1.08,1.08,0,0,1,.78.34,1.2,1.2,0,0,1,0,1.62,1,1,0,0,1-.79.33,1.11,1.11,0,0,1-1.12-1.14Z"/><path class="cls-3" d="M230.88,85.68V69.15h1.91v8l7.79-8h2.49l-7.77,7.94,8.8,8.59h-2.67l-8.64-8.31v8.31Z"/><path class="cls-3" d="M245,82.67A14.48,14.48,0,0,0,247.59,84a6.15,6.15,0,0,0,2.1.41,3.7,3.7,0,0,0,2.5-.81,2.67,2.67,0,0,0,.95-2.13,2.76,2.76,0,0,0-.7-1.87A8.14,8.14,0,0,0,249.91,78l-1.13-.51a7.37,7.37,0,0,1-2.73-2,4.18,4.18,0,0,1-.91-2.65,3.91,3.91,0,0,1,1.31-3,5,5,0,0,1,3.41-1.18,7.24,7.24,0,0,1,2,.29,7.74,7.74,0,0,1,1.88.83v2.11a8.49,8.49,0,0,0-2-1.19,5.41,5.41,0,0,0-1.95-.38,3,3,0,0,0-2.08.68,2.23,2.23,0,0,0-.78,1.77,2.48,2.48,0,0,0,.72,1.76A7.37,7.37,0,0,0,250,76l1.15.51A7.39,7.39,0,0,1,254,78.61a4.67,4.67,0,0,1,1,2.89,4.44,4.44,0,0,1-1.46,3.42,5.37,5.37,0,0,1-3.76,1.32,8.72,8.72,0,0,1-2.27-.31,11.94,11.94,0,0,1-2.39-.94Z"/><path class="cls-3" d="M260.16,69.15v9.67A6.4,6.4,0,0,0,261.32,83a4.17,4.17,0,0,0,3.43,1.41A4.05,4.05,0,0,0,268.13,83a6.56,6.56,0,0,0,1.15-4.21v-9.6H271v9.92a7.58,7.58,0,0,1-1.69,5.25,5.81,5.81,0,0,1-4.6,1.9,6.26,6.26,0,0,1-4.83-1.85,7.47,7.47,0,0,1-1.7-5.24v-10Z"/><path class="cls-3" d="M274.24,82.67A14.52,14.52,0,0,0,276.88,84a6.15,6.15,0,0,0,2.1.41,3.72,3.72,0,0,0,2.5-.81,2.66,2.66,0,0,0,.94-2.13,2.76,2.76,0,0,0-.69-1.87A8.09,8.09,0,0,0,279.19,78l-1.12-.51a7.33,7.33,0,0,1-2.74-2,4.24,4.24,0,0,1-.91-2.65,3.89,3.89,0,0,1,1.32-3,4.94,4.94,0,0,1,3.41-1.18,7.29,7.29,0,0,1,2,.29,7.74,7.74,0,0,1,1.88.83v2.11a8.69,8.69,0,0,0-2-1.19,5.49,5.49,0,0,0-1.95-.38A3,3,0,0,0,277,71a2.23,2.23,0,0,0-.78,1.77,2.48,2.48,0,0,0,.72,1.76A7.26,7.26,0,0,0,279.26,76l1.15.51a7.35,7.35,0,0,1,2.88,2.13,4.62,4.62,0,0,1,1,2.89,4.44,4.44,0,0,1-1.46,3.42,5.39,5.39,0,0,1-3.76,1.32,8.67,8.67,0,0,1-2.27-.31A11.71,11.71,0,0,1,274.4,85Z"/><rect class="cls-4" x="126.06" y="61.87" width="158.98" height="0.97"/></svg>