<svg id="Layer_1" data-name="Layer 1" xmlns="http://www.w3.org/2000/svg" viewBox="0 0 166.67 124"><defs><style>.cls-1{fill:#fdda00;}.cls-2{fill:#19468d;}</style></defs><title>Vertikaalne_mini_logo</title><path class="cls-1" d="M93.46,41.06,88,46.38a4.83,4.83,0,0,1-6,.38l-5.82-4.21a3.19,3.19,0,0,1-.39-5l5.44-5.26a4.84,4.84,0,0,1,6-.46L93.07,36A3.19,3.19,0,0,1,93.46,41.06Z"/><path class="cls-2" d="M67.4,14c-1.06.55-1,1.6.11,2.44a1.39,1.39,0,0,1,.28.16c.16.12.38.17.55.28,2.38,1.11,4.66,2.27,7,3.43a44.71,44.71,0,0,1,4.77,3c4.37,3,8.75,6.16,13.08,9.21a4.47,4.47,0,0,0,4,.44c1.11-.5,1.06-1.61-.11-2.39-4.32-3.05-8.7-6.15-13.08-9.2-.83-.55-1.66-1.16-2.49-1.78-2.5-1.55-5.66-3-8.43-4.37-.67-.28-1.28-.61-1.94-.89a4.7,4.7,0,0,0-2.33-.63,3.34,3.34,0,0,0-1.44.3"/><path class="cls-2" d="M73.66,9.68c-1,.55-1,1.61.11,2.44.11.05.17.11.28.16a1.72,1.72,0,0,0,.55.23c2.33,1.16,4.66,2.32,6.94,3.49a39.19,39.19,0,0,1,4.81,3c4.39,3.05,8.77,6.15,13.1,9.2a4.44,4.44,0,0,0,4,.45c1.11-.5,1.05-1.61-.11-2.39-4.38-3.1-8.71-6.15-13.08-9.2-.84-.55-1.72-1.16-2.55-1.77-2.45-1.56-5.66-3-8.37-4.39-.67-.27-1.28-.6-1.95-.88a4.74,4.74,0,0,0-2.35-.62,3.22,3.22,0,0,0-1.42.29"/><path class="cls-2" d="M80.82,5.19c-1.06.5-1,1.6.11,2.38a1,1,0,0,1,.27.17,2.93,2.93,0,0,0,.56.28c2.38,1.1,4.66,2.32,6.93,3.49a34.45,34.45,0,0,1,4.82,2.93c4.38,3.06,8.76,6.1,13.09,9.15a4.29,4.29,0,0,0,4,.5c1.11-.55,1-1.61-.11-2.44-4.38-3-8.71-6-13.08-9.14-.83-.56-1.72-1.17-2.55-1.78-2.5-1.5-5.65-2.94-8.38-4.37-.66-.29-1.27-.56-1.93-.9a4.67,4.67,0,0,0-2.29-.61,3.05,3.05,0,0,0-1.48.34"/><path class="cls-2" d="M77.27,26.81c-4.6,3.66-9.21,7.32-13.81,10.92-.88.72-1.77,1.44-2.66,2.1-2.38,2.17-4.93,5.05-7.2,7.54C53,48,52.54,48.54,52,49.15a4.86,4.86,0,0,0-1.44,3.94c.28,1.39,1.44,1.66,2.67.72,0-.06.16-.12.27-.22a2.57,2.57,0,0,1,.45-.5c1.88-2.17,3.87-4.21,5.81-6.33a47.85,47.85,0,0,1,4.6-4.1l13.81-11a4.69,4.69,0,0,0,1.72-4.16,1.39,1.39,0,0,0-1.35-1.26,2.09,2.09,0,0,0-1.31.54"/><path class="cls-2" d="M70.45,22.26,56.87,33c-.89.67-1.78,1.38-2.61,2-2.39,2.1-4.88,5-7.15,7.43-.5.61-1,1.16-1.5,1.72a4.75,4.75,0,0,0-1.44,3.93c.28,1.33,1.44,1.61,2.66.67.05-.06.17-.11.22-.23a1.45,1.45,0,0,0,.45-.44C49.38,46,51.32,44,53.21,41.94a38.36,38.36,0,0,1,4.6-4.1c4.49-3.6,9-7.15,13.53-10.76A4.72,4.72,0,0,0,73.05,23a1.36,1.36,0,0,0-1.3-1.26,2.15,2.15,0,0,0-1.3.54"/><path class="cls-2" d="M63.35,18.22c-4.05,3.21-8.15,6.43-12.2,9.7L48.77,29.8c-2.1,1.89-4.32,4.44-6.38,6.65L41,38a4.65,4.65,0,0,0-1.28,3.55c.23,1.16,1.34,1.44,2.39.6a.91.91,0,0,0,.22-.22,3.47,3.47,0,0,0,.39-.44c1.72-1.89,3.44-3.71,5.15-5.54A30.69,30.69,0,0,1,52,32.25c4-3.22,8.14-6.44,12.19-9.71a4.12,4.12,0,0,0,1.5-3.72,1.18,1.18,0,0,0-1.15-1.08,1.94,1.94,0,0,0-1.18.48"/><path class="cls-2" d="M56.92,55.36c-1.22.5-1.22,1.66-.05,2.6l.27.17v.06c.17.11.39.16.56.27,2.49,1.34,4.88,2.78,7.31,4.16A41,41,0,0,1,70,66.12c4.49,3.54,9,7.09,13.53,10.58a4.73,4.73,0,0,0,4.32.78c1.22-.55,1.22-1.72.06-2.66-4.5-3.49-9-7-13.48-10.59-.88-.72-1.71-1.39-2.6-2.05C69.17,60.35,65.85,58.63,63,57c-.67-.39-1.39-.72-2.05-1.11a4.92,4.92,0,0,0-2.64-.76,3.48,3.48,0,0,0-1.41.26"/><path class="cls-2" d="M62,49.37c-1.28.55-1.28,1.78-.06,2.72a.8.8,0,0,0,.28.22,5.55,5.55,0,0,0,.61.34c2.55,1.44,5,2.88,7.54,4.32a40.4,40.4,0,0,1,5.15,3.66c4.72,3.66,9.37,7.37,14,11.08a5.11,5.11,0,0,0,4.49.78c1.28-.55,1.34-1.77.11-2.77q-7.07-5.49-14-11.09c-.95-.67-1.84-1.38-2.72-2.11-2.66-1.88-6.16-3.71-9.09-5.49-.73-.33-1.39-.71-2.11-1.11a5.59,5.59,0,0,0-2.83-.8,3.57,3.57,0,0,0-1.38.25"/><path class="cls-2" d="M67.67,43.72c-1.27.55-1.33,1.83,0,2.82.11.06.17.17.28.22h0a4.15,4.15,0,0,0,.56.34c2.66,1.44,5.21,2.94,7.82,4.43a38.14,38.14,0,0,1,5.32,3.78c4.82,3.76,9.59,7.59,14.41,11.36a5.14,5.14,0,0,0,4.66.83c1.27-.55,1.33-1.83,0-2.83C96,60.85,91.13,57.08,86.35,53.25c-.93-.72-1.88-1.44-2.76-2.22-2.77-1.94-6.32-3.77-9.43-5.59-.71-.33-1.44-.73-2.11-1.11a5.52,5.52,0,0,0-3-.86,3.82,3.82,0,0,0-1.42.25"/><path class="cls-2" d="M124.5,37.29c-3.93,3.48-7.87,7-11.81,10.53-.78.67-1.49,1.33-2.27,2-2,2-4.16,4.82-6.15,7.15-.44.55-.89,1.05-1.28,1.61a4.38,4.38,0,0,0-1.17,3.6c.29,1.16,1.34,1.39,2.39.5a.91.91,0,0,1,.22-.22c.11-.17.28-.34.39-.5,1.61-2,3.27-3.94,4.93-5.94a38.44,38.44,0,0,1,3.94-3.93L125.5,41.61a4.43,4.43,0,0,0,1.39-3.82,1.19,1.19,0,0,0-1.14-1,2,2,0,0,0-1.25.55"/><path class="cls-2" d="M118.73,32.13c-3.93,3.5-7.93,7-11.86,10.48-.78.72-1.5,1.39-2.27,2-2,2.05-4.22,4.77-6.21,7.09-.39.56-.83,1.11-1.28,1.67A4.3,4.3,0,0,0,96,57c.27,1.17,1.33,1.39,2.38.45l.22-.22a3.51,3.51,0,0,0,.33-.45c1.67-2,3.33-3.94,5-5.93a33.31,33.31,0,0,1,3.94-3.94L119.73,36.4a4.22,4.22,0,0,0,1.39-3.77A1.2,1.2,0,0,0,120,31.55a1.88,1.88,0,0,0-1.24.58"/><path class="cls-2" d="M112.75,27c-3.94,3.49-7.93,7-11.87,10.47-.77.67-1.5,1.39-2.27,2a85.41,85.41,0,0,0-6.15,7.1l-1.33,1.66A4.42,4.42,0,0,0,90,51.81c.28,1.22,1.39,1.39,2.38.5.12-.05.17-.16.23-.22a1.92,1.92,0,0,0,.39-.5c1.66-2,3.27-3.94,4.93-5.88a46.93,46.93,0,0,1,4-4c4-3.49,7.93-7,11.87-10.48a4.28,4.28,0,0,0,1.38-3.82,1.18,1.18,0,0,0-1.13-1,1.87,1.87,0,0,0-1.25.59"/><path class="cls-2" d="M17.46,112.87V96.07H10.9v-2H26.25v2H19.69v16.8Z"/><path class="cls-2" d="M23.66,112.87l8.69-19.3h.27l8.66,19.3h-2.4l-2.07-4.79H28L26,112.87Zm5.18-6.59H36L32.46,98Z"/><path class="cls-2" d="M43.48,112.87V94.05h3.93a10.33,10.33,0,0,1,5.92,1.4,4.64,4.64,0,0,1,2,4.08A5,5,0,0,1,54,103a6,6,0,0,1-3.54,1.83l6.75,8H54.47L48,105.14H45.66v7.73Zm2.18-9.46h1.88a7.44,7.44,0,0,0,4.18-1,3.24,3.24,0,0,0,1.43-2.85,3.06,3.06,0,0,0-1.42-2.81,8.84,8.84,0,0,0-4.56-.89H45.66Z"/><path class="cls-2" d="M63.79,112.87V96.07H57.23v-2H72.57v2H66v16.8Z"/><path class="cls-2" d="M77.2,94.05v11a7.32,7.32,0,0,0,1.32,4.74,4.76,4.76,0,0,0,3.9,1.61,4.66,4.66,0,0,0,3.86-1.63,7.57,7.57,0,0,0,1.31-4.8V94.05h2v11.29a8.68,8.68,0,0,1-1.92,6,6.65,6.65,0,0,1-5.25,2.16,7.08,7.08,0,0,1-5.48-2.1,8.45,8.45,0,0,1-1.94-6V94.05Z"/><path class="cls-2" d="M101.5,112.87V94.05h4.38v8.19L112,94.05h5.28l-7,9,7.56,9.86h-5.36l-6.61-8.67v8.67Z"/><path class="cls-2" d="M119.37,112.87V94.05h4.38V101h7.16V94.05h4.36v18.82h-4.36V105h-7.16v7.89Z"/><path class="cls-2" d="M139.55,112.87V94.05h4.38v8.19l6.13-8.19h5.28l-7,9,7.56,9.86h-5.35l-6.61-8.67v8.67Z"/></svg>